<?xml version="1.0" encoding="UTF-8"?>
<svg id="Camada_1" xmlns="http://www.w3.org/2000/svg" version="1.1" viewBox="0 0 623.34 919.87">
  <!-- Generator: Adobe Illustrator 30.0.0, SVG Export Plug-In . SVG Version: 2.1.1 Build 123)  -->
  <defs>
    <style>
      .st0 {
        fill: #0047bb;
      }
    </style>
  </defs>
  <path class="st0" d="M474.47,30.24H118.63C53.1,30.24,0,83.34,0,148.85v474.47h0s0,0,0,0v296.54h593.09v-296.55h0V148.85c0-65.51-53.12-118.61-118.63-118.61ZM474.47,564.02c-32.75,0-59.3-26.56-59.3-59.31v-88.96h118.62v148.27h-59.31ZM59.32,148.85c0-32.74,26.55-59.32,59.32-59.32h355.84c32.77,0,59.32,26.57,59.32,59.32v207.58h-118.62v-118.62h14.83c32.76,0,59.31-26.55,59.31-59.31h-133.45v385.51h-118.62V178.51H103.8c0,32.76,26.55,59.31,59.31,59.31h14.83v118.62H59.32v-207.58ZM177.93,415.75v88.96c0,32.75-26.55,59.31-59.3,59.31h-59.31v-148.27h118.62ZM59.31,860.56v-237.24h474.47v237.24H59.31Z"/>
  <path class="st0" d="M275.96,722.63v-4.7c0-4.39,1.49-5.91,5.97-5.91h15.83c4.48,0,5.97,1.51,5.97,5.91v1.06h29.86v-5.08c0-.26,0-.57,0-.98,0-17.42-9.26-26.66-26.72-26.66h-34.04c-17.47,0-26.72,9.24-26.72,26.66v8.79c0,7.12,2.99,12.42,10.6,17.27-8.81,4.09-11.94,10.45-11.94,21.36v10.6c0,17.42,9.26,26.66,26.72,26.66h35.98c17.47,0,26.72-9.24,26.72-26.66v-16.66h14.33v-25.75h-66.59c-4.48,0-5.97-1.51-5.97-5.91ZM304.33,765.95c0,4.39-1.49,5.91-5.97,5.91h-17.77c-4.48,0-5.97-1.51-5.97-5.91v-5.76c0-4.39,1.49-5.91,5.97-5.91h23.74v11.66Z"/>
  <polygon class="st0" points="418.64 731.57 391.47 687.8 362.66 687.8 362.66 796.1 392.52 796.1 392.52 738.24 413.42 772.01 423.72 772.01 444.62 738.24 444.62 796.1 474.48 796.1 474.48 687.8 445.66 687.8 418.64 731.57"/>
  <polygon class="st0" points="118.62 713.55 159.52 713.55 159.52 796.1 189.38 796.1 189.38 713.55 230.27 713.55 230.27 687.8 118.62 687.8 118.62 713.55"/>
  <path class="st0" d="M593.1,0c-16.67,0-30.24,13.57-30.24,30.24s13.57,30.24,30.24,30.24,30.24-13.57,30.24-30.24-13.57-30.24-30.24-30.24ZM593.1,53.43c-12.79,0-23.19-10.4-23.19-23.19s10.4-23.19,23.19-23.19,23.19,10.4,23.19,23.19-10.4,23.19-23.19,23.19Z"/>
  <path class="st0" d="M603.42,39.71v-3.17c0-2.56-.97-4.29-2.9-5.15,2.09-1.4,3.27-3.61,3.27-6.18,0-5.01-3.18-8-8.51-8h-12.91v26.06h6.71v-8.6h4.69c2.11,0,2.82.68,2.82,2.68v2.29c0,1.59.14,2.67.43,3.29l.16.34h6.93l-.35-.82c-.24-.57-.36-1.49-.36-2.74ZM593.44,28.78h-4.35v-5.64h4.52c2.16,0,3.12.85,3.12,2.75s-1.2,2.89-3.29,2.89Z"/>
</svg>